<svg width="360" height="175" viewBox="0 0 360 175" fill="none" xmlns="http://www.w3.org/2000/svg">
<path d="M359.839 167.22C361.29 148.002 352.895 128.3 338.012 115.996C320.48 101.5 295.952 97.9215 273.36 100.819C250.767 103.717 229.393 112.361 207.946 120.01C186.498 127.658 164.158 134.455 141.402 133.419C113.906 132.167 87.936 119.565 60.4615 117.927C42.7468 116.869 24.3058 120.723 10.027 131.224C-4.25607 141.725 -13.6875 159.439 -11.7477 177.021C-11.7173 177.29 -11.6847 177.561 -11.6499 177.83H358.03C358.956 174.36 359.567 170.807 359.839 167.22Z" fill="#D3E6FD"/>
<path d="M242.532 83.9161C238.028 81.2199 235.203 75.8945 235.503 70.6667L236.871 70.7448C236.6 75.4806 239.159 80.3031 243.239 82.7457L242.532 83.9161Z" fill="#2E5BBF"/>
<path d="M225.28 162.582L218.885 162.56C219.294 165.324 221.04 175.758 221.349 177.83H227.742C227.431 175.73 225.687 165.311 225.28 162.582Z" fill="#2A53AD"/>
<path d="M255.73 86.6968C254.105 86.1051 252.529 85.4007 251.026 84.5728C248.469 83.1726 246.133 81.4257 244.174 79.3016C245.131 79.4252 246.111 79.2886 246.931 78.7944C247.958 78.1724 248.619 77.0605 248.904 75.8944C249.189 74.7305 249.141 73.5125 249.017 72.3182C248.793 70.166 248.316 67.9986 247.238 66.1194C246.159 64.2403 244.417 62.6646 242.308 62.1444C240.486 61.6936 238.655 62.4825 237.38 63.7288C237.056 61.5419 236.893 59.3246 236.837 57.1312C236.734 53.1626 236.939 49.1876 237.047 45.2169C237.108 42.9108 237.139 40.6068 237.052 38.3051C237.732 38.266 238.409 38.1945 239.076 38.084C243.922 37.2842 248.332 34.9022 252.194 31.8202C252.809 32.5593 253.518 33.2268 254.295 33.7882C257.574 36.1723 261.812 36.9374 265.866 36.7359C271.661 36.4454 277.329 34.2282 281.834 30.5912C281.721 33.7058 282.254 36.8204 283.639 39.6033C284.359 41.0447 285.32 42.3646 286.464 43.5003C287.034 44.066 287.652 44.5884 288.308 45.0544C289.187 45.6786 289.902 46.1814 290.196 47.2521C290.526 48.4464 290.922 49.6103 291.455 50.7308C291.994 51.8644 292.64 52.9459 293.386 53.9516L293.56 54.0014C293.084 55.6378 292.832 57.3544 292.725 59.0537C292.54 61.9558 292.755 64.9599 294.002 67.5846C295.041 69.7693 296.898 71.655 299.16 72.4418L299.158 72.4483C297.653 74.7587 295.926 76.9348 294.002 78.9006C291.001 81.9762 287.515 84.5424 283.635 86.3197C283.398 86.4302 283.161 86.5364 282.917 86.6405C282.117 86.9807 281.302 87.2907 280.469 87.5638C275.795 89.1005 270.798 89.4624 265.89 88.9748C264.659 88.8512 263.435 88.6757 262.223 88.4502C260.031 88.0493 257.841 87.4662 255.73 86.6968ZM290.442 73.5623C291.868 71.8436 292.69 69.5396 292.281 67.344C291.875 65.1506 290.139 62.8553 287.68 62.5909C285.52 62.3568 283.339 63.2368 281.68 64.6347C280.021 66.0306 278.827 67.901 277.872 69.8495C277.344 70.9267 276.878 72.0538 276.746 73.2459C276.613 74.4358 276.846 75.708 277.6 76.6444C278.429 77.6739 279.792 78.1746 281.117 78.1962C282.441 78.2222 283.735 77.8213 284.962 77.3206C287.03 76.4688 289.013 75.2811 290.442 73.5623ZM272.166 74.0717C274.347 72.3572 275.476 69.4096 274.997 66.683C270.559 67.4936 259.67 69.0324 259.67 69.0324C259.751 69.7953 260.338 71.254 260.721 71.9021C261.547 73.2957 262.802 74.4444 264.294 75.0903C266.842 76.1914 269.985 75.7861 272.166 74.0717ZM257.291 55.4341C257.291 53.7045 255.884 52.3044 254.151 52.3044C252.416 52.3044 251.011 53.7045 251.011 55.4341C251.011 57.1615 252.416 58.5638 254.151 58.5638C255.884 58.5617 257.291 57.1615 257.291 55.4341Z" fill="#FFC3A8"/>
<path d="M89.2234 86.4236C86.6269 87.1779 84.1913 88.4545 82.1885 90.2578C79.331 92.8348 77.476 96.3634 76.3343 100.031C75.297 103.351 74.8077 106.808 74.3728 110.263L61.9707 110.319C61.9642 110.185 61.9555 110.053 61.949 109.918C61.7641 106.808 61.5793 103.694 61.3944 100.581C61.1683 96.773 60.9421 92.967 60.716 89.1589C60.468 84.9736 60.218 80.7883 59.9701 76.6031C59.72 72.3593 59.4677 68.1112 59.2133 63.8674C58.9784 59.8772 58.7414 55.8891 58.5022 51.8989C58.2999 48.4853 58.0977 45.0694 57.8954 41.6558C57.8106 40.2426 57.3583 38.4198 58.6087 37.3838C59.7243 36.4583 61.4336 36.6187 62.7732 36.6122C64.2693 36.6079 65.7611 36.6035 67.2551 36.597C68.9057 36.5905 70.5541 36.5862 72.2025 36.5797C73.9857 36.5732 75.7689 36.5667 77.5521 36.5602C79.4506 36.5537 81.349 36.5472 83.2475 36.5407C85.2417 36.5342 87.2315 36.5277 89.2256 36.519C91.2915 36.5125 93.3618 36.506 95.4277 36.4952C97.548 36.4887 99.6705 36.48 101.791 36.4735C103.946 36.4648 106.103 36.4583 108.26 36.4475C110.428 36.441 112.599 36.4323 114.771 36.4236C116.935 36.415 119.099 36.4085 121.263 36.3976C123.402 36.389 125.54 36.3825 127.68 36.376C129.772 36.3673 131.864 36.3608 133.954 36.35C135.981 36.3435 138.007 36.3369 140.034 36.3283C141.972 36.3218 143.914 36.3153 145.854 36.3088C147.687 36.3023 149.52 36.2958 151.353 36.2893C153.06 36.2828 154.77 36.2763 156.477 36.2698C158.036 36.2654 159.597 36.2589 161.161 36.2546C162.557 36.2503 163.951 36.2437 165.345 36.2394C166.55 36.2351 167.767 36.2784 168.97 36.2264C169.655 36.1961 170.097 36.8571 170.194 37.4597C170.334 38.3201 170.314 39.2326 170.366 40.1017C170.475 41.9375 170.584 43.7755 170.692 45.6113C170.701 45.776 170.712 45.9407 170.723 46.1055C170.827 47.8871 170.936 49.6665 171.04 51.446C171.153 53.3923 171.271 55.3386 171.388 57.2828C171.51 59.3505 171.632 61.4204 171.756 63.4881C171.884 65.6382 172.012 67.7861 172.139 69.9383C172.269 72.123 172.397 74.31 172.526 76.4969C172.656 78.6773 172.787 80.8599 172.915 83.0403C173.043 85.1752 173.169 87.3079 173.295 89.4406C173.417 91.4845 173.537 93.5262 173.659 95.5701C173.774 97.4796 173.885 99.3869 173.998 101.296C174.1 103.028 174.204 104.762 174.307 106.494C174.372 107.601 174.439 108.711 174.502 109.819L135.513 109.994C136.111 107.825 136.67 105.644 137.188 103.453C137.731 101.162 138.231 98.858 138.688 96.5454C138.888 95.5202 139.082 94.4972 139.267 93.4699C139.293 93.3377 139.317 93.2033 139.34 93.0711C139.541 91.9353 139.66 90.7628 139.921 89.64C140.002 89.3019 140.219 89.1047 140.465 88.8815C140.728 88.6452 140.961 88.3786 141.163 88.0925C141.569 87.5073 141.848 86.8289 141.948 86.1245C142.783 85.9294 143.566 85.1687 143.766 84.254C143.964 83.3416 143.566 82.3272 142.798 81.7897C143.401 81.1763 143.768 80.2313 143.559 79.4034C143.346 78.5754 142.572 77.9187 141.717 77.8493C142.139 77.1991 142.25 76.33 141.917 75.6538C141.585 74.9754 140.828 74.5289 140.075 74.5635C141.5 72.9597 142.744 71.4555 143.92 69.9036C144.375 69.3054 144.829 68.484 144.41 67.8619C144.144 67.4696 143.607 67.3417 143.144 67.4263C142.681 67.5151 142.272 67.7839 141.885 68.0548C139.473 69.7519 137.372 71.8413 135.328 73.9697C133.334 74.9645 131.701 76.6746 130.846 78.7336C129.948 80.8924 129.929 83.3892 130.748 85.5762C130.851 85.8492 131.033 86.1288 131.105 86.4084C131.249 86.9698 130.966 87.6048 130.792 88.1294C130.577 88.7817 130.361 89.4363 130.144 90.0887C130.1 90.2209 130.057 90.3531 130.013 90.4853C129.624 91.6601 129.235 92.8348 128.846 94.0074C127.98 96.6213 127.115 99.2352 126.249 101.847C125.825 103.134 125.397 104.422 124.973 105.707L110.676 89.2304C109.672 88.4155 108.545 87.7111 107.34 87.1454C106.69 86.8376 106.016 86.571 105.327 86.3521C104.322 86.0313 103.285 85.8037 102.232 85.6824L102.173 85.6889C102.163 85.6173 102.145 85.548 102.126 85.4765C102.113 85.2315 102.095 84.9628 102.078 84.6854C102.069 84.5401 102.06 84.3927 102.05 84.2432C102.865 84.2432 103.681 84.2432 104.492 84.2432C106.323 84.2432 108.021 84.3646 109.759 83.6342C112.453 82.5006 114.46 79.8195 114.647 76.9109C114.739 75.4825 114.369 74.0369 113.653 72.7971C113.295 72.1729 112.845 71.5985 112.32 71.1044C112.079 70.8768 111.757 70.6991 111.542 70.4606C111.3 70.1897 111.181 69.7476 111.15 69.3986C111.12 69.054 111.261 68.8459 111.377 68.5316C111.503 68.1827 111.601 67.8229 111.666 67.4566C111.709 67.216 111.672 66.8757 111.751 66.6525C111.946 66.0933 112.858 65.8007 113.323 65.5385C113.934 65.1917 114.515 64.7842 115.043 64.3204C116.091 63.4036 116.944 62.2548 117.446 60.9522C118.488 58.2516 117.84 54.8748 115.602 53.0347C114.099 51.7971 112.066 51.3376 110.12 51.4395C109.496 51.4741 108.756 51.5001 108.162 51.7082C107.678 51.8773 107.282 52.016 106.747 52.0312C105.659 52.0637 104.559 51.7624 103.646 51.1707C102.284 50.2929 100.969 49.5408 99.3834 49.1247C96.8434 48.4571 94.1403 48.5481 91.5808 49.129C86.6682 50.2365 82.1537 53.2167 79.4593 57.4562C77.924 59.8685 77.0215 62.6775 76.841 65.5255C76.6996 67.7731 77.0041 70.1702 75.9385 72.2509C74.8903 74.297 73.3485 75.7079 73.1354 78.1506C72.8701 81.1503 74.5359 84.2735 77.252 85.5935C79.829 86.8441 83.1997 86.2914 85.1808 84.2454C87.8643 84.2454 90.5456 84.2454 93.2313 84.2454C93.277 84.72 93.3248 85.1947 93.3705 85.6694L93.3357 85.678C92.7138 85.7279 92.0962 85.8059 91.4807 85.9121C90.7196 86.0335 89.965 86.2069 89.2234 86.4236Z" fill="#FFFFFD"/>
<path d="M172.958 81.6877L125.125 81.6573L120.945 36.3693L115.226 36.2935L119.849 86.7507L173.198 86.8656L172.958 81.6877Z" fill="#99E7FF"/>
<path d="M307.463 144.501C306.404 143.535 305.76 142.163 305.89 140.632C305.93 140.173 305.975 139.716 306.03 139.258C308.963 141.339 311.947 143.396 315.189 144.913C314.565 145.262 313.906 145.54 313.223 145.726C312.421 145.943 311.592 146.034 310.764 145.956C309.513 145.841 308.343 145.31 307.463 144.501Z" fill="#BF3426"/>
<path d="M228.927 154.972V157.753L176.96 157.857L176.945 150.405C177.008 150.41 177.073 150.416 177.136 150.421C181.122 146.001 187.629 144.051 193.413 145.427C195.551 146.396 197.717 147.3 199.909 148.143C204.947 150.085 210.104 151.715 215.301 153.188C216.651 153.57 218.004 153.945 219.361 154.307C222.36 155.111 225.531 155.876 228.534 155.085C228.666 155.05 228.797 155.013 228.927 154.972Z" fill="#EBEBEB"/>
<path d="M101.832 73.4927C102.193 73.8244 102.119 74.4182 101.913 74.8625C101.421 75.9051 100.319 76.6333 99.1659 76.6788C98.0112 76.7222 96.8543 76.0785 96.2889 75.0771C96.1432 74.8192 96.0323 74.5353 96.0388 74.2427C96.0453 73.9501 96.1845 73.6445 96.4433 73.5014C96.8804 73.2587 97.5958 73.4472 98.0656 73.4841C98.8876 73.5491 99.7226 73.5339 100.532 73.3584C100.973 73.2608 101.497 73.1871 101.832 73.4927Z" fill="white"/>
<path d="M92.9725 81.5773C90.9566 81.1655 88.9907 80.4914 87.1466 79.5789C87.2184 78.8442 87.2032 78.1029 87.1227 77.3746C86.9879 76.1587 86.6791 74.971 86.2964 73.8136C86.1093 73.2414 85.8484 72.6844 85.6831 72.11C85.5439 71.6288 85.5048 70.8529 85.7266 70.3934C85.8614 70.116 86.1202 69.8602 86.2877 69.6001C86.4747 69.3119 86.6508 69.0149 86.8139 68.7093C87.4446 67.5259 87.8751 66.2363 88.073 64.9077L88.0643 64.8687C88.6102 64.7473 89.1538 64.6194 89.6932 64.4764C89.7432 65.9069 89.6975 67.4457 90.1629 68.8762C90.6544 70.3826 91.8482 71.7654 93.4183 72.0081C94.9928 72.2531 96.5846 71.2604 97.3871 69.8819C98.183 68.5143 98.3091 66.8454 98.1286 65.274C98.9419 64.8448 99.9532 64.808 100.793 65.1786C100.612 66.7522 100.743 68.4102 101.536 69.7779C102.334 71.1542 103.926 72.1468 105.505 71.9041C107.073 71.6613 108.271 70.2764 108.76 68.7722C108.776 68.7245 108.793 68.6747 108.804 68.627C108.815 68.9564 108.821 69.2859 108.83 69.6196C110.776 72.4091 109.826 76.5164 107.364 78.8615C105.851 80.3028 103.92 81.1785 101.865 81.6423C100.577 81.9349 99.2355 82.0649 97.9242 82.0714C96.2606 82.0801 94.5992 81.9132 92.9725 81.5773ZM101.913 74.8648C102.121 74.4205 102.193 73.8266 101.832 73.495C101.497 73.1872 100.973 73.2631 100.527 73.3584C99.7183 73.534 98.8832 73.5492 98.0612 73.4841C97.5937 73.4473 96.876 73.2587 96.4389 73.5015C96.1801 73.6445 96.041 73.9501 96.0344 74.2427C96.0301 74.5353 96.1388 74.8214 96.2845 75.0772C96.8499 76.0785 98.0069 76.7223 99.1616 76.6789C100.319 76.6334 101.421 75.9051 101.913 74.8648Z" fill="#FFAE84"/>
<path d="M292.281 67.3438C292.69 69.5373 291.868 71.8434 290.442 73.5621C289.013 75.2809 287.03 76.4686 284.962 77.3161C283.735 77.8168 282.441 78.2177 281.117 78.1917C279.792 78.1679 278.429 77.6672 277.6 76.6399C276.846 75.7035 276.613 74.4334 276.746 73.2414C276.878 72.0515 277.344 70.9222 277.872 69.845C278.827 67.8965 280.021 66.0261 281.68 64.6302C283.339 63.2323 285.52 62.3523 287.68 62.5864C290.139 62.8573 291.875 65.1504 292.281 67.3438Z" fill="#FFA995"/>
<path d="M176.668 141.732C176.523 141.79 176.373 141.842 176.22 141.89C175.324 142.163 174.239 142.109 173.509 141.591C173.282 141.435 173.091 141.231 172.95 140.984C172.784 140.698 172.706 140.375 172.695 140.043C172.158 140.719 171.071 140.945 170.264 140.555C169.298 140.093 168.766 138.985 168.75 137.917C168.735 136.851 169.155 135.823 169.679 134.893C171.575 131.543 174.989 129.085 178.778 128.346C181.133 127.886 183.603 128.094 185.858 128.892C188.242 129.731 190.61 130.569 193.083 131.072C194.5 131.36 196.127 131.215 197.571 131.274C199.108 131.337 200.642 131.406 202.179 131.48C208.299 131.766 214.418 132.115 220.535 132.466C220.964 132.488 221.392 132.514 221.818 132.54C223.682 130.132 225.167 128.187 226.453 126.477C231.528 132.821 236.604 139.163 241.679 145.507C239.598 147.274 237.519 149.038 235.438 150.802C233.461 152.482 231.391 154.207 228.923 154.972C228.792 155.013 228.662 155.052 228.529 155.087C225.526 155.878 222.355 155.113 219.357 154.309C218 153.947 216.647 153.574 215.297 153.191C210.099 151.719 204.943 150.087 199.904 148.145C197.712 147.302 195.546 146.4 193.409 145.429C193.093 145.286 192.778 145.141 192.465 144.993C191.243 144.426 190.036 143.832 188.84 143.216C187.881 142.72 186.606 142.243 185.513 142.228C184.808 142.219 184.129 142.215 183.427 142.085C182.966 141.998 182.509 141.879 182.064 141.729C181.17 141.428 180.322 140.999 179.558 140.442C178.543 140.724 177.651 141.339 176.668 141.732Z" fill="#FFC3A8"/>
<path d="M102.232 85.6734C103.285 85.7948 104.322 86.0224 105.327 86.3431C105.483 87.3445 105.446 88.3913 105.046 89.319C104.603 90.3507 103.661 91.2046 102.543 91.3455C101.058 91.5319 99.6096 90.3463 99.266 88.8942L99.2616 88.8747C100.099 88.7381 100.925 88.387 101.499 87.7628C102.013 87.2079 102.293 86.4168 102.173 85.6821L102.232 85.6734Z" fill="#99E7FF"/>
<path d="M102.05 84.2346C102.058 84.382 102.067 84.5294 102.078 84.6768C98.9398 85.0604 95.6713 84.2693 93.0639 82.4899C93.0334 82.1843 93.0052 81.883 92.9747 81.5774C94.6014 81.9133 96.2628 82.0802 97.9242 82.0716C99.2377 82.0651 100.577 81.935 101.865 81.6424C101.889 81.9697 101.973 83.1206 102.05 84.2346Z" fill="#FF9566"/>
<path d="M178.317 108.193C178.349 108.726 178.378 109.259 178.41 109.793L174.502 109.81C174.439 108.702 174.372 107.593 174.307 106.485C174.204 104.753 174.1 103.019 173.998 101.288C173.883 99.3781 173.772 97.4708 173.659 95.5613C173.537 93.5174 173.417 91.4757 173.295 89.4319C173.167 87.2991 173.041 85.1664 172.915 83.0315C172.787 80.8511 172.656 78.6685 172.526 76.4881C172.395 74.3012 172.267 72.1143 172.139 69.9295C172.01 67.7794 171.882 65.6315 171.756 63.4793C171.632 61.4116 171.51 59.3417 171.388 57.274C171.271 55.3277 171.156 53.3813 171.04 51.4372C170.936 49.6577 170.827 47.8783 170.723 46.0967C170.714 45.9319 170.703 45.7672 170.692 45.6025C170.584 43.7667 170.475 41.9287 170.366 40.0929C170.314 39.2238 170.334 38.3113 170.194 37.4509C170.097 36.8483 169.655 36.1873 168.97 36.2176C167.767 36.2696 166.55 36.2263 165.345 36.2306C163.951 36.2349 162.557 36.2414 161.161 36.2458C159.6 36.2501 158.038 36.2566 156.477 36.2609C154.77 36.2675 153.06 36.274 151.353 36.2805C149.52 36.287 147.687 36.2935 145.854 36.3C143.912 36.3065 141.972 36.313 140.034 36.3195C138.007 36.3281 135.981 36.3346 133.954 36.3411C131.862 36.3498 129.77 36.3563 127.68 36.3672C125.54 36.3737 123.402 36.3802 121.263 36.3888C119.099 36.3975 116.935 36.404 114.771 36.4148C112.599 36.4213 110.431 36.43 108.26 36.4387C106.105 36.4473 103.948 36.4538 101.791 36.4647C99.6705 36.4712 97.548 36.4799 95.4277 36.4864C93.3618 36.495 91.2916 36.5015 89.2256 36.5102C87.2315 36.5189 85.2417 36.5254 83.2475 36.5319C81.3491 36.5384 79.4506 36.5449 77.5521 36.5514C75.7689 36.5579 73.9857 36.5644 72.2025 36.5709C70.5541 36.5774 68.9057 36.5817 67.2552 36.5882C65.7612 36.5947 64.2694 36.5991 62.7732 36.6034C61.4336 36.6099 59.7243 36.4495 58.6087 37.375C57.3605 38.411 57.8128 40.2338 57.8955 41.647C58.0977 45.0606 58.2999 48.4765 58.5022 51.8901C58.7392 55.8803 58.9763 59.8684 59.2133 63.8586C59.4677 68.1024 59.7178 72.3505 59.9701 76.5943C60.218 80.7796 60.4681 84.9648 60.716 89.1501C60.9421 92.9582 61.1683 96.7642 61.3945 100.572C61.5793 103.685 61.7642 106.799 61.949 109.91C61.9555 110.044 61.9642 110.176 61.9707 110.311L57.9476 110.328C57.7389 106.736 57.5301 103.143 57.317 99.5515C57.0821 95.5028 56.8451 91.454 56.6059 87.4075C56.3602 83.1724 56.1122 78.9394 55.8643 74.7065C55.6229 70.5472 55.3772 66.3858 55.1358 62.2287C54.9118 58.4032 54.6878 54.5799 54.4639 50.7566C54.2747 47.5271 54.0876 44.2977 53.8984 41.0683C53.8506 40.2446 53.6288 39.2932 53.7419 38.4934C53.9419 37.0911 54.6335 35.7581 55.6751 34.7936C57.8607 32.7779 60.7421 33.1659 63.4843 33.1572C65.8938 33.1485 68.3012 33.1399 70.7128 33.129C73.4551 33.1182 76.1995 33.1095 78.9439 33.0965C81.9471 33.0857 84.9525 33.0749 87.9556 33.064C91.1459 33.051 94.3382 33.038 97.5285 33.0272C100.832 33.0163 104.137 33.0012 107.443 32.9903C110.785 32.9773 114.13 32.9643 117.474 32.9513C120.784 32.9405 124.096 32.9296 127.406 32.9145C130.609 32.9036 133.81 32.8928 137.014 32.8776C140.036 32.869 143.057 32.8581 146.082 32.8451C148.85 32.8343 151.619 32.8256 154.387 32.8126C156.825 32.8039 159.267 32.7953 161.707 32.7844C163.747 32.7779 165.782 32.7693 167.822 32.7606C168.387 32.7584 168.983 32.6999 169.54 32.7324C170.764 32.8061 172.023 33.5777 172.813 34.4772C174.048 35.8882 174.176 37.7651 174.281 39.5467C174.344 40.6391 174.409 41.7293 174.472 42.8195C174.622 45.3987 174.776 47.978 174.926 50.5572C175.103 53.5504 175.279 56.5436 175.455 59.5346C175.646 62.8009 175.84 66.0628 176.033 69.3291C176.231 72.7233 176.433 76.1174 176.631 79.5138C176.829 82.8971 177.029 86.2826 177.227 89.6659C177.419 92.8975 177.608 96.1291 177.797 99.3608C177.971 102.319 178.143 105.254 178.317 108.193Z" fill="#FE9126"/>
<path d="M100.793 65.1784C100.795 65.1676 100.795 65.1546 100.797 65.1438C101.893 63.8823 103.354 63.1671 104.881 63.0132C106.149 62.8853 107.451 63.1476 108.578 63.7436C108.671 65.354 108.756 66.973 108.804 68.6246C108.793 68.6723 108.776 68.7221 108.76 68.7698C108.269 70.274 107.073 71.6568 105.505 71.9017C103.926 72.1445 102.337 71.154 101.536 69.7755C100.743 68.41 100.612 66.7498 100.793 65.1784Z" fill="white"/>
<path d="M85.5265 110.211L74.3728 110.261C74.8055 106.806 75.297 103.349 76.3343 100.029C77.476 96.3613 79.3331 92.8328 82.1885 90.2557C84.1913 88.4503 86.6269 87.1737 89.2235 86.4216C88.5276 87.5009 88.5972 89.003 89.1495 90.1907C89.7736 91.5258 90.8914 92.5597 92.1462 93.483C93.6358 98.9124 94.3861 104.543 94.3709 110.172L85.5265 110.211Z" fill="#00BFFB"/>
<path d="M98.1286 65.2741C98.3091 66.8476 98.183 68.5144 97.3871 69.882C96.5846 71.2583 94.995 72.2532 93.4183 72.0083C91.8482 71.7677 90.6522 70.3827 90.1629 68.8763C89.6975 67.448 89.7432 65.9092 89.6932 64.4765C91.0502 64.121 92.3789 63.6854 93.6445 63.0937C93.7772 63.0959 93.912 63.1045 94.0446 63.1197C95.5691 63.2714 97.0326 63.9888 98.1286 65.2524C98.1265 65.2589 98.1286 65.2676 98.1286 65.2741Z" fill="white"/>
<path d="M108.53 62.894C108.545 63.178 108.565 63.4597 108.58 63.7458C107.454 63.1498 106.151 62.8875 104.883 63.0154C103.356 63.1671 101.895 63.8845 100.799 65.146C100.797 65.1568 100.797 65.1698 100.795 65.1807C99.9553 64.81 98.942 64.8469 98.1308 65.276C98.1308 65.2695 98.1286 65.2608 98.1286 65.2522C97.0326 63.9886 95.5691 63.2712 94.0446 63.1194C93.912 63.1064 93.7772 63.0956 93.6445 63.0934C93.8881 62.9807 94.1316 62.8594 94.3708 62.7336C97.2066 61.2403 99.6748 58.7218 100.314 55.5942L100.329 55.5985C102.365 55.3298 104.503 55.9952 106.025 57.3671C107.545 58.7391 108.419 60.7982 108.53 62.894Z" fill="#FFAE84"/>
<path d="M89.6823 64.2532C90.8261 63.4513 92.2418 63.0395 93.6423 63.0915C92.3767 63.6832 91.0479 64.121 89.691 64.4743C89.6888 64.4028 89.6844 64.3291 89.6823 64.2532Z" fill="white"/>
<path d="M109.241 64.149C109.176 65.5968 109.248 67.1617 108.804 68.6247C108.756 66.9731 108.671 65.354 108.578 63.7437C108.808 63.865 109.03 64.0016 109.241 64.149Z" fill="white"/>
<path d="M88.0644 64.8686L88.0731 64.9077C87.8773 66.2341 87.4446 67.5259 86.8139 68.7093C86.6508 69.0149 86.4769 69.3097 86.2877 69.6001C86.118 69.8624 85.8614 70.1159 85.7266 70.3934C85.5048 70.8529 85.5439 71.6288 85.6831 72.11C85.8506 72.6865 86.1094 73.2435 86.2964 73.8135C86.6791 74.9709 86.9879 76.1608 87.1227 77.3746C87.2032 78.1028 87.2162 78.8441 87.1467 79.5789C87.0053 81.1567 86.4921 82.6848 85.4874 83.8942C85.3895 84.0134 85.2873 84.1261 85.1786 84.2366C83.1997 86.2827 79.829 86.8353 77.2498 85.5848C74.5315 84.2648 72.8679 81.1416 73.1332 78.1419C73.3485 75.6992 74.8882 74.2882 75.9363 72.2422C76.9997 70.1615 76.6975 67.7665 76.8388 65.5167C77.0193 62.6666 77.924 59.8598 79.4571 57.4474C82.1515 53.208 86.6682 50.2278 91.5786 49.1202C94.1382 48.5394 96.8412 48.4483 99.3812 49.1159C100.969 49.532 102.284 50.2841 103.644 51.1619C104.557 51.7536 105.657 52.0549 106.745 52.0224C107.28 52.0072 107.675 51.8685 108.16 51.6995C108.754 51.4914 109.493 51.4654 110.117 51.4307C112.064 51.3288 114.097 51.7883 115.6 53.0259C117.838 54.866 118.486 58.2429 117.444 60.9435C116.942 62.2461 116.089 63.3948 115.041 64.3116C114.512 64.7754 113.934 65.1829 113.321 65.5297C112.855 65.7941 111.944 66.0846 111.748 66.6438C111.67 66.867 111.707 67.2051 111.664 67.4479C111.598 67.8142 111.498 68.1739 111.374 68.5229C111.259 68.8372 111.118 69.0474 111.148 69.3899C111.179 69.741 111.296 70.181 111.54 70.4519C111.755 70.6903 112.077 70.868 112.318 71.0956C112.842 71.5898 113.292 72.1641 113.651 72.7884C114.367 74.0281 114.736 75.4738 114.645 76.9021C114.458 79.8108 112.451 82.4919 109.757 83.6254C108.019 84.3558 106.321 84.2345 104.489 84.2345C103.676 84.2345 102.861 84.2345 102.047 84.2345C101.971 83.1182 101.889 81.9673 101.863 81.6401C103.918 81.1762 105.849 80.3006 107.362 78.8593C109.824 76.512 110.774 72.4069 108.828 69.6174C108.821 69.2858 108.815 68.9542 108.802 68.6248C109.245 67.1618 109.172 65.5947 109.239 64.1491C109.026 64.0017 108.806 63.8651 108.576 63.7438C108.56 63.4598 108.541 63.1781 108.526 62.892C108.417 60.7961 107.541 58.7392 106.018 57.3672C104.498 55.9953 102.358 55.3299 100.323 55.5986L100.308 55.5943C99.6683 58.7219 97.2001 61.2404 94.3643 62.7337C94.1251 62.8595 93.8815 62.9787 93.638 63.0935C92.2375 63.0415 90.8218 63.4533 89.6779 64.2553C89.6801 64.3311 89.6845 64.4026 89.6866 64.4785C89.1517 64.6172 88.608 64.7473 88.0644 64.8686Z" fill="#002169"/>
<path d="M135.326 73.9611C137.37 71.8327 139.471 69.7433 141.883 68.0462C142.268 67.7753 142.676 67.5065 143.142 67.4177C143.605 67.331 144.142 67.461 144.407 67.8533C144.827 68.4754 144.373 69.2968 143.918 69.895C142.742 71.4469 141.498 72.9511 140.073 74.555C140.826 74.5203 141.582 74.9668 141.915 75.6452C142.246 76.3214 142.137 77.1905 141.715 77.8408C142.572 77.9123 143.346 78.5668 143.557 79.3948C143.768 80.2227 143.4 81.1677 142.796 81.7811C143.564 82.3186 143.964 83.333 143.764 84.2455C143.566 85.1601 142.783 85.9209 141.946 86.1159C141.846 86.8225 141.567 87.4987 141.161 88.0839C140.958 88.37 140.724 88.6366 140.463 88.8729C140.217 89.0961 139.999 89.2912 139.919 89.6315C139.658 90.7564 139.54 91.9268 139.338 93.0625C139.316 93.1947 139.29 93.3291 139.264 93.4613L130.009 90.4724C130.052 90.3402 130.096 90.208 130.139 90.0758C130.357 89.4234 130.574 88.7688 130.788 88.1164C130.961 87.5919 131.244 86.959 131.101 86.3955C131.029 86.1159 130.846 85.8363 130.744 85.5632C129.924 83.3763 129.946 80.8795 130.842 78.7207C131.699 76.666 133.334 74.9559 135.326 73.9611Z" fill="#FFAE84"/>
<path d="M93.0617 82.4895C93.1182 83.0725 93.1726 83.6534 93.2313 84.2343C90.5456 84.2343 87.8621 84.2343 85.1808 84.2343C85.2873 84.1259 85.3917 84.011 85.4896 83.8918C86.4943 82.6824 87.0075 81.1544 87.1488 79.5765C88.9908 80.489 90.9566 81.163 92.9747 81.5748C93.003 81.8826 93.0313 82.1839 93.0617 82.4895Z" fill="#002169"/>
<path d="M93.2313 84.2346C93.1748 83.6515 93.1204 83.0707 93.0617 82.4898C95.6691 84.2692 98.9397 85.0603 102.076 84.6767C102.093 84.9541 102.11 85.2229 102.123 85.4678C102.143 85.5393 102.16 85.6087 102.171 85.6802C102.293 86.415 102.01 87.2061 101.497 87.7609C100.923 88.3873 100.097 88.7363 99.2594 88.8728C99.2268 88.8793 99.1964 88.8836 99.1637 88.888C96.8064 89.2283 94.3077 87.8498 93.3466 85.6824L93.3357 85.6694L93.3705 85.6607C93.3248 85.1839 93.277 84.7114 93.2313 84.2346Z" fill="#FFAE84"/>
<path d="M99.166 88.89C99.1986 88.8856 99.2291 88.8813 99.2617 88.8748L99.266 88.8943C99.1812 90.3009 97.9069 91.6166 96.4303 91.8723C94.9537 92.1302 93.3966 91.415 92.4833 90.2294C91.5721 89.0438 91.2698 87.4573 91.496 85.9813L91.4829 85.9033C92.0962 85.7971 92.716 85.719 93.3379 85.6692L93.3488 85.6822C94.3078 87.8518 96.8087 89.2302 99.166 88.89Z" fill="#99E7FF"/>
<path d="M107.34 87.1368C107.662 88.175 107.484 89.3476 107.038 90.3511C106.527 91.5042 105.696 92.4839 105.196 93.2533C105.016 98.8799 105.192 104.519 105.716 110.122L94.3708 110.174C94.3861 104.545 93.6358 98.9167 92.1462 93.4852C90.8936 92.5619 89.7736 91.528 89.1495 90.1929C88.5971 89.0052 88.5254 87.5031 89.2234 86.4238C89.965 86.207 90.7196 86.0336 91.4807 85.9058L91.4938 85.9838C91.2676 87.4598 91.5699 89.0463 92.4811 90.2319C93.3944 91.4175 94.9515 92.1327 96.428 91.8748C97.9046 91.6169 99.179 90.3013 99.2638 88.8968C99.6074 90.3489 101.056 91.5345 102.541 91.3481C103.657 91.2094 104.6 90.3533 105.044 89.3216C105.444 88.3939 105.483 87.3471 105.325 86.3457C106.016 86.5647 106.688 86.8291 107.34 87.1368Z" fill="#FFFBFF"/>
<path d="M114.362 110.081L105.716 110.12C105.192 104.517 105.016 98.8775 105.196 93.251C105.696 92.4815 106.527 91.504 107.038 90.3488C107.484 89.3453 107.662 88.1727 107.34 87.1345C108.545 87.698 109.672 88.4046 110.676 89.2196L124.973 105.696C125.397 104.411 125.825 103.126 126.249 101.836C127.115 99.2243 127.98 96.6104 128.846 93.9965C129.235 92.8218 129.624 91.6471 130.013 90.4745L139.269 93.4634C139.084 94.4907 138.892 95.5137 138.69 96.5389C138.234 98.8515 137.733 101.153 137.19 103.446C136.674 105.638 136.113 107.818 135.515 109.988L114.362 110.081Z" fill="#00BFFB"/>
<path d="M85.5265 110.211L94.3708 110.172L105.716 110.12L114.362 110.081L135.513 109.986L174.502 109.81L178.41 109.793C178.528 111.761 178.643 113.729 178.758 115.701C178.758 117.879 179.632 120.216 178.127 122.108C176.122 124.629 172.43 124.358 169.531 124.371C167.165 124.379 164.801 124.388 162.437 124.399C159.656 124.408 156.877 124.418 154.095 124.429C150.99 124.44 147.882 124.455 144.777 124.466C141.432 124.477 138.088 124.488 134.743 124.503C131.475 124.516 128.213 124.525 124.949 124.54C124.72 124.54 124.49 124.542 124.261 124.542C120.706 124.555 117.15 124.57 113.595 124.581C111 124.59 108.408 124.6 105.816 124.611C104.883 124.616 103.946 124.618 103.013 124.622C99.6008 124.633 96.191 124.648 92.779 124.659C89.5714 124.672 86.3659 124.685 83.1561 124.696C80.2421 124.707 77.3259 124.72 74.414 124.728C71.8827 124.739 69.3471 124.748 66.8158 124.759C63.9431 124.769 61.6119 124.03 59.9135 121.484C57.9693 118.571 57.9541 113.742 57.9541 110.371C57.9541 110.363 57.9541 110.354 57.9519 110.343L61.975 110.326L74.3771 110.269L85.5265 110.211Z" fill="#FFD24C"/>
<path d="M282.904 86.9914C282.826 88.6755 282.75 90.3617 282.669 92.0458C280.838 94.7096 277.833 96.5454 274.617 96.9485C271.292 97.3625 266.173 96.0685 265.407 93.6324C265.409 93.628 265.409 93.6237 265.409 93.6194C271.781 93.589 278.12 91.1853 282.904 86.9914Z" fill="#FFC3A8"/>
<path d="M255.73 86.6968C253.179 90.4269 251.22 94.5667 249.958 98.9037C248.891 99.6189 247.849 100.393 246.823 101.225C245.666 102.168 244.561 103.169 243.506 104.216C244.533 97.2261 247.123 90.4681 251.026 84.5728C252.529 85.3985 254.105 86.1051 255.73 86.6968Z" fill="#2E5BBF"/>
<path d="M105.933 157.584C104.055 157.584 102.221 156.442 101.336 154.777C100.392 153 100.523 150.739 101.56 149.014C102.515 147.423 104.229 146.164 106.053 145.748C109.926 145.763 113.812 145.793 117.716 145.839C122.415 145.895 127.136 145.975 131.884 146.084L131.823 154.712L131.801 157.946L105.933 157.998V157.584Z" fill="white"/>
<path d="M39.9437 119.017L40.6091 120.502C40.272 120.543 39.9328 120.586 39.5957 120.629L39.9437 119.017Z" fill="#203F85"/>
<path d="M40.607 120.5L41.6291 122.78L39.0847 122.975L39.5914 120.625C39.9328 120.584 40.2699 120.541 40.607 120.5Z" fill="#99E6FD"/>
<path d="M176.944 150.406C165.273 149.4 152.367 149.357 140.913 149.888C140.911 149.84 140.911 149.792 140.908 149.747C143.572 144.783 149.202 141.742 154.985 140.659C160.767 139.575 166.739 140.24 172.526 141.309C172.904 141.38 173.104 141.549 173.478 141.634L173.509 141.591C174.239 142.107 175.327 142.163 176.22 141.89C176.37 141.842 176.523 141.79 176.668 141.732H182.07C182.516 141.881 182.973 142 183.434 142.087C184.134 142.217 184.812 142.221 185.519 142.23C186.613 142.243 187.887 142.722 188.846 143.218C190.042 143.836 191.251 144.428 192.471 144.996C192.785 145.141 193.1 145.286 193.415 145.431C187.629 144.055 181.124 146.006 177.138 150.425C177.073 150.419 177.008 150.41 176.944 150.406Z" fill="white"/>
<path d="M57.0212 119.225L57.3104 120.684L56.2666 120.506L57.0212 119.225Z" fill="#203F85"/>
<path d="M111.692 163.345C111.285 166.073 110.881 168.802 110.474 171.531H28.9574C29.351 168.898 29.7403 166.262 30.1317 163.629L111.692 163.345Z" fill="#21428A"/>
<path d="M28.9574 171.529C28.6464 173.629 28.3333 175.727 28.0245 177.827H21.631C22.3312 173.1 23.0358 168.375 23.736 163.65L30.1317 163.629C29.7403 166.262 29.351 168.898 28.9574 171.529Z" fill="#2A53AD"/>
<path d="M98.9724 145.737C101.328 145.737 103.687 145.739 106.053 145.75C104.229 146.166 102.513 147.425 101.56 149.016C100.523 150.741 100.392 153.002 101.336 154.779C102.219 156.444 104.052 157.586 105.933 157.586V158.002L79.5767 158.054V157.586C77.6978 157.586 75.8624 156.444 74.9795 154.779C74.0357 153.002 74.1662 150.741 75.2013 149.016C76.2364 147.293 78.111 146.129 80.103 145.832C86.3529 145.776 92.6442 145.739 98.9724 145.737Z" fill="#00BFFB"/>
<path d="M57.3105 120.684L57.7062 122.661L55.2293 122.27L56.2666 120.506L57.3105 120.684Z" fill="#99E6FD"/>
<path d="M32.9348 121.347C33.7612 125.04 34.5897 128.731 35.4182 132.424C35.3443 132.424 35.2747 132.424 35.2008 132.424C34.6006 132.424 34.0004 132.424 33.4002 132.424C33.2023 132.424 33.0022 132.424 32.8043 132.424C32.0193 128.918 31.232 125.411 30.4448 121.904L32.9348 121.347Z" fill="#59D9FD"/>
<path d="M140.971 157.931L131.801 157.948L131.823 154.714H140.961C140.963 155.791 140.963 156.871 140.971 157.931Z" fill="#FFD24C"/>
<path d="M41.6312 122.78C41.8726 125.996 42.1162 129.208 42.3597 132.425C41.5051 132.425 40.6526 132.425 39.8002 132.425C39.5631 129.275 39.3261 126.126 39.0869 122.975L41.6312 122.78Z" fill="#0A81D1"/>
<path d="M110.474 171.529C110.881 168.8 111.285 166.072 111.692 163.343L118.088 163.319C117.679 166.082 117.268 168.841 116.857 171.605C116.55 173.679 116.243 175.753 115.935 177.828H109.541C109.852 175.73 110.163 173.631 110.474 171.529Z" fill="#2A53AD"/>
<path d="M44.1995 132.405C44.5452 122.396 44.8453 110.644 45.2194 101.894H50.121C49.847 108.332 49.61 116.394 49.3686 124.191L49.3664 124.245L48.3726 124.206C48.2617 126.943 48.1486 129.678 48.0377 132.416V132.424C46.8786 132.424 45.7174 132.424 44.5605 132.424C44.4387 132.424 44.3212 132.424 44.1995 132.424V132.405Z" fill="#58D7FC"/>
<path d="M50.9213 124.305C50.8126 127.01 50.6973 129.717 50.5886 132.424C50.2646 132.424 49.9427 132.424 49.6187 132.424C49.0903 132.424 48.564 132.424 48.0377 132.424V132.416C48.1486 129.678 48.2617 126.943 48.3726 124.206L49.3665 124.245L50.9213 124.305Z" fill="#0A81D1"/>
<path d="M140.963 154.714C140.961 153.061 140.956 151.418 140.913 149.888C152.367 149.357 165.273 149.4 176.945 150.406L176.96 157.857L140.971 157.931C140.963 156.871 140.963 155.792 140.963 154.714Z" fill="#EBEBEB"/>
<path d="M57.7062 122.661C57.1125 125.899 56.521 129.139 55.9273 132.377L55.9295 132.405C55.8077 132.414 55.6968 132.425 55.612 132.425C55.151 132.425 54.69 132.425 54.2289 132.425C53.9441 132.425 53.6614 132.425 53.3743 132.425V132.405C53.9919 129.028 54.6095 125.649 55.2293 122.271L57.7062 122.661Z" fill="#59D9FD"/>
<path d="M35.4204 132.424C36.8057 132.424 38.1953 132.424 39.5827 132.424C39.6566 132.424 39.7262 132.424 39.8002 132.424C40.6526 132.424 41.5051 132.424 42.3597 132.424C42.9708 132.424 43.5862 132.424 44.1995 132.424C44.3213 132.424 44.4387 132.424 44.5605 132.424C45.7174 132.424 46.8787 132.424 48.0378 132.424C48.564 132.424 49.0903 132.424 49.6187 132.424C49.9427 132.424 50.2646 132.424 50.5886 132.424C51.5172 132.424 52.4458 132.424 53.3743 132.424C53.6592 132.424 53.9419 132.424 54.229 132.424C54.69 132.424 55.151 132.424 55.6121 132.424C55.6969 132.424 55.8078 132.414 55.9296 132.405C56.2623 132.381 56.6668 132.381 56.7429 132.717C56.7907 132.923 56.6863 133.25 56.6624 133.458C56.5972 134.024 56.5298 134.592 56.4645 135.155C56.3014 136.568 56.1383 137.982 55.9752 139.395C55.786 141.025 55.5968 142.652 55.4098 144.28C55.2185 145.932 55.0271 147.588 54.8357 149.239C54.6617 150.726 54.4899 152.213 54.3203 153.7C54.1877 154.829 54.0572 155.958 53.9267 157.085C53.8854 157.423 53.8462 157.764 53.8093 158.102L34.9551 158.139C34.9442 158.039 34.9311 157.939 34.9203 157.837C34.805 156.862 34.6919 155.882 34.581 154.907C34.4179 153.511 34.257 152.117 34.0961 150.722C33.909 149.098 33.7199 147.477 33.5328 145.856C33.3415 144.198 33.1501 142.54 32.9566 140.884C32.7826 139.382 32.6086 137.88 32.4368 136.38C32.302 135.225 32.1737 134.069 32.0345 132.916C31.9801 132.448 32.2454 132.422 32.6238 132.422C32.6825 132.422 32.7456 132.422 32.8043 132.422C33.0022 132.422 33.2023 132.422 33.4002 132.422C34.0004 132.422 34.6006 132.422 35.2008 132.422C35.2769 132.424 35.3465 132.424 35.4204 132.424Z" fill="#00BFFB"/>
<path d="M249.019 72.3204C249.143 73.5125 249.191 74.7327 248.906 75.8966C248.621 77.0627 247.96 78.1746 246.933 78.7966C246.114 79.2908 245.133 79.4273 244.176 79.3038C243.619 78.7034 243.093 78.0727 242.604 77.4116C241.238 75.5758 240.177 73.5666 239.357 71.4491C238.402 68.9891 237.776 66.3838 237.387 63.7288C238.661 62.4847 240.492 61.6936 242.314 62.1444C244.424 62.6646 246.166 64.2403 247.244 66.1194C248.319 68.0007 248.795 70.166 249.019 72.3204Z" fill="#FFA995"/>
<path d="M282.92 86.6426C282.915 86.7597 282.909 86.8745 282.904 86.9916C278.12 91.1855 271.781 93.5892 265.409 93.6195C265.566 92.1045 265.731 90.5375 265.894 88.9791C270.802 89.4668 275.8 89.1048 280.473 87.5681C281.304 87.295 282.121 86.9851 282.92 86.6426Z" fill="#FF8570"/>
<path d="M342.298 68.2021L346.13 75.8639C345.162 76.3906 344.256 77.0365 343.47 77.8059L339.38 69.6348L339.373 69.5221C340.348 69.1645 341.3 68.7375 342.214 68.2455L342.298 68.2021Z" fill="#FDC242"/>
<path d="M316.622 112.368C312.277 108.969 307.932 105.571 303.587 102.172C297.483 97.3972 290.479 91.9614 282.719 92.0871L282.669 92.0502C282.669 92.0481 282.669 92.0481 282.669 92.0459C280.838 94.7096 277.833 96.5454 274.617 96.9486C271.292 97.3626 266.173 96.0686 265.407 93.6324C265.407 93.6281 265.405 93.6238 265.405 93.6194C265.211 93.6216 265.013 93.6216 264.82 93.6173C258.92 94.2241 254.216 96.0686 249.958 98.9036C248.891 99.6188 247.849 100.393 246.823 101.225C245.666 102.168 244.561 103.169 243.506 104.216C239.781 107.909 236.628 112.183 233.627 116.496C231.008 120.261 229.184 122.845 226.455 126.477C231.53 132.821 236.606 139.163 241.682 145.507C241.947 145.835 242.21 146.164 242.471 146.493C242.573 145.852 242.675 145.212 242.782 144.573C243.584 139.662 244.435 134.757 245.339 129.865C246.986 117.396 254.042 105.538 264.374 98.0041C266.927 100.252 270.354 101.509 273.764 101.403C275.817 101.34 277.844 100.781 279.658 99.8226C283.352 117.35 294.28 131.985 302.537 140.132C304.34 141.912 306.017 143.381 307.463 144.504C306.404 143.537 305.76 142.165 305.89 140.635C305.93 140.175 305.975 139.718 306.03 139.261C306.558 134.755 307.828 130.322 309.99 126.332C312.364 121.937 316.153 117.916 320.458 115.369C319.177 114.366 317.901 113.365 316.622 112.368Z" fill="#FE9126"/>
<path d="M356.229 84.2259C356.462 84.9737 356.449 85.7756 356.386 86.5559C356.29 86.5385 356.192 86.5255 356.09 86.5255C355.607 86.5212 355.14 86.6794 354.696 86.868C352.761 87.6829 351.082 89.0961 349.951 90.8647C349.914 90.921 349.879 90.9774 349.847 91.0381C349.033 91.3285 348.039 90.9795 347.504 90.2881C346.922 89.5382 346.83 88.4849 347.096 87.5745C347.163 87.3405 347.252 87.1151 347.361 86.8961C347.67 86.2654 348.12 85.7019 348.611 85.1969C349.649 84.137 350.908 83.2917 352.284 82.7369C352.904 82.4876 353.583 82.2947 354.233 82.3749C354.389 82.3944 354.546 82.4291 354.696 82.4833C355.453 82.7542 355.988 83.4608 356.229 84.2259Z" fill="#FFC3A8"/>
<path d="M343.468 77.8061C344.253 77.0366 345.16 76.3907 346.128 75.8641C346.441 75.695 346.761 75.5368 347.085 75.3937C347.87 75.0426 348.703 74.7674 349.564 74.7478C350.423 74.724 351.314 74.9819 351.934 75.578C352.55 76.174 352.837 77.1363 352.511 77.9296L352.513 77.9578C352.063 77.9881 351.599 78.1095 351.177 78.2634C349.327 78.9223 347.633 80.0103 346.265 81.417C345.841 81.8526 345.445 82.3251 345.145 82.8496C344.947 82.8128 344.754 82.7326 344.586 82.622C344.834 82.4313 345.075 82.2276 345.304 82.0108C345.928 81.4148 346.463 80.6605 346.537 79.8001C346.611 78.9418 346.08 77.9946 345.23 77.8342C344.601 77.715 343.986 78.025 343.412 78.3046C343.196 78.4086 342.981 78.5126 342.764 78.6102L342.753 78.582C342.977 78.3111 343.218 78.0531 343.468 77.8061Z" fill="#FFC3A8"/>
<path d="M299.371 10.5034C299.292 10.3409 299.197 10.1718 299.088 9.99408C304.155 11.598 306.395 14.7407 307.473 17.1639C307.9 18.1219 308.145 18.965 308.309 19.5589C310.833 28.6533 310.851 38.1444 310.161 47.6116C310.042 49.2459 309.903 50.8801 309.752 52.51C308.639 62.1831 304.579 60.0201 304.109 58.7109C303.642 57.3997 303.742 55.967 303.824 54.5777C303.992 51.7622 304.059 48.9424 304.04 46.1248C304.04 45.8257 304.035 45.5309 304.031 45.234C303.894 34.8564 302.578 24.4897 300.61 14.2856C300.365 12.9613 299.943 11.6955 299.371 10.5034Z" fill="#2E5BBF"/>
<path d="M237.382 63.7285C237.774 66.3814 238.398 68.9888 239.353 71.4488L239.257 71.4857C236.832 71.9387 234.157 71.1714 232.472 69.3551C230.739 67.4868 230.117 64.8534 229.865 62.324C229.686 60.5359 229.66 58.7326 229.78 56.9402C229.889 55.3363 230.117 53.7411 230.465 52.1697C230.902 50.1952 231.572 48.1773 233.007 46.749C234.057 45.7043 235.612 45.0714 237.047 45.2188C236.941 49.1895 236.734 53.1646 236.837 57.1331C236.897 59.3243 237.058 61.5416 237.382 63.7285Z" fill="#FE9126"/>
<path d="M254.151 58.5636C255.885 58.5636 257.291 57.1624 257.291 55.4339C257.291 53.7054 255.885 52.3041 254.151 52.3041C252.417 52.3041 251.011 53.7054 251.011 55.4339C251.011 57.1624 252.417 58.5636 254.151 58.5636Z" fill="black"/>
<path d="M307.423 70.335C306.454 71.2172 305.316 71.9281 304.098 72.3637H304.096C301.217 72.7214 299.025 70.2982 297.892 67.9119C296.644 65.2828 296.431 62.2809 296.615 59.3809C296.837 55.9109 297.655 52.3564 299.775 49.5929C300.923 48.0996 302.391 46.8381 304.035 46.1251C304.055 48.9427 303.988 51.7625 303.82 54.578C303.737 55.9673 303.637 57.3999 304.105 58.7112C304.573 60.0203 308.633 62.1812 309.748 52.5103C309.898 50.8804 310.037 49.2461 310.157 47.6119L310.201 47.6141C311.018 48.3943 311.603 49.3003 312.023 50.2085C312.53 51.3052 312.797 52.4062 312.938 53.297C313.382 56.0453 312.851 58.8586 312.106 61.5419C311.727 62.9073 311.281 64.275 310.703 65.5732C310.09 66.9582 309.326 68.263 308.335 69.4074C308.054 69.7325 307.748 70.0446 307.423 70.335Z" fill="#FFD24C"/>
<path d="M265.409 93.6191C265.409 93.6237 265.409 93.6282 265.407 93.6327C265.407 93.6282 265.405 93.6237 265.405 93.6191C265.407 93.6214 265.407 93.6214 265.409 93.6191Z" fill="#A66E6E"/>
<path d="M345.147 82.8493C345.447 82.3227 345.841 81.8502 346.267 81.4167C347.635 80.01 349.329 78.922 351.18 78.2631C351.602 78.1114 352.065 77.9878 352.515 77.9575C353.022 77.9228 353.515 78.0073 353.924 78.3043C354.5 78.7183 354.75 79.4703 354.74 80.1748C354.729 80.8835 354.492 81.5619 354.255 82.2316L354.235 82.3747C353.587 82.2945 352.906 82.4852 352.287 82.7366C350.91 83.2915 349.649 84.1368 348.614 85.1966C348.12 85.7016 347.67 86.2652 347.363 86.8959C346.585 87.2405 345.591 86.8851 345.088 86.1893C344.567 85.4632 344.521 84.4727 344.799 83.6274C344.884 83.3565 345.004 83.0964 345.147 82.8493Z" fill="#FFC3A8"/>
<path d="M308.511 71.9906C308.998 72.851 309.313 73.77 309.039 74.689C308.733 75.725 307.687 76.4424 306.61 76.5486C305.532 76.6548 304.453 76.23 303.69 75.4974C303.426 77.5673 301.406 79.0607 299.342 79.4161C297.585 79.7196 295.798 79.3814 294.056 78.9501L294.006 78.9025C295.93 76.9366 297.657 74.7605 299.162 72.4501L299.164 72.4436C299.621 72.604 300.093 72.7167 300.58 72.7774C301.776 72.9291 302.97 72.7643 304.098 72.3612H304.101C305.318 71.9256 306.456 71.2168 307.426 70.3325C307.508 70.4604 307.593 70.5818 307.676 70.701C307.963 71.1106 308.259 71.5441 308.511 71.9906Z" fill="#002169"/>
<path d="M274.997 66.6829C275.478 69.4095 274.347 72.3593 272.166 74.0716C269.985 75.786 266.842 76.1913 264.296 75.0881C262.802 74.4422 261.549 73.2935 260.723 71.8998C260.34 71.2518 259.753 69.7931 259.672 69.0302C259.67 69.0302 270.559 67.4935 274.997 66.6829Z" fill="white"/>
<path d="M313.221 145.724L313.23 145.754L310.518 177.83H299.638C300.547 165.525 301.641 152.384 302.537 140.13C304.342 141.909 306.016 143.379 307.463 144.502C308.343 145.312 309.513 145.841 310.762 145.956C311.59 146.032 312.419 145.941 313.221 145.724Z" fill="#203F85"/>
<path d="M319.127 146.404L316.313 177.828H310.516L313.228 145.752L313.219 145.722C313.902 145.535 314.561 145.258 315.185 144.909C315.92 145.254 316.668 145.568 317.433 145.852C317.99 146.06 318.556 146.244 319.127 146.404Z" fill="#2E5BBF"/>
<path d="M283.637 86.3216C283.398 86.5513 283.152 86.7746 282.904 86.9913C282.909 86.8743 282.915 86.7594 282.92 86.6424C283.163 86.5383 283.4 86.4343 283.637 86.3216Z" fill="#A66E6E"/>
<path d="M275.284 58.6612C277.019 58.6612 278.424 57.26 278.424 55.5315C278.424 53.803 277.019 52.4017 275.284 52.4017C273.55 52.4017 272.144 53.803 272.144 55.5315C272.144 57.26 273.55 58.6612 275.284 58.6612Z" fill="black"/>
<path d="M265.405 93.6194C265.211 93.6216 265.013 93.6216 264.82 93.6173C265.007 93.5934 265.196 93.5761 265.385 93.5609C265.392 93.5804 265.398 93.5978 265.405 93.6194Z" fill="#A66E6E"/>
<path d="M304.029 45.2342C304.033 45.5311 304.038 45.8259 304.038 46.125C302.394 46.8402 300.926 48.0995 299.777 49.5928C297.657 52.3563 296.839 55.9108 296.618 59.3808C296.433 62.283 296.646 65.2849 297.894 67.9118C299.027 70.2959 301.219 72.7212 304.098 72.3636C302.97 72.7668 301.776 72.9315 300.58 72.7798C300.093 72.7191 299.621 72.6042 299.164 72.446C296.903 71.6614 295.045 69.7736 294.006 67.5888C292.76 64.9619 292.545 61.9579 292.729 59.0579C292.836 57.3586 293.088 55.6421 293.564 54.0057C294.062 52.2977 294.806 50.6809 295.889 49.2699C297.885 46.669 300.856 44.7725 304.029 45.2342Z" fill="#FE9126"/>
<path d="M233.007 46.7469C231.574 48.1752 230.902 50.1931 230.465 52.1676C230.117 53.7368 229.889 55.3342 229.78 56.9381L229.765 56.9359C230.21 50.4683 231.974 44.0962 234.91 38.3113C235.625 38.3504 236.341 38.3482 237.054 38.307C237.141 40.6088 237.111 42.9128 237.05 45.2189C235.612 45.0693 234.057 45.7022 233.007 46.7469Z" fill="#2E5BBF"/>
<path d="M264.82 93.6171C258.92 94.224 254.216 96.0685 249.958 98.9035C251.222 94.5665 253.181 90.4267 255.73 86.6966C257.842 87.4682 260.031 88.0512 262.226 88.4565C263.439 88.6819 264.661 88.8575 265.892 88.981C265.729 90.5394 265.566 92.1065 265.407 93.6215C265.405 93.6236 265.405 93.6236 265.403 93.6215C265.396 93.602 265.39 93.5825 265.385 93.563C265.196 93.576 265.007 93.5933 264.82 93.6171Z" fill="#203F85"/>
<path d="M303.587 102.172C297.483 97.3974 290.479 91.9615 282.719 92.0872L282.669 92.0504C282.669 92.0482 282.669 92.0482 282.669 92.046C282.75 90.362 282.826 88.6757 282.904 86.9916C283.152 86.7749 283.398 86.5517 283.637 86.3219C287.517 84.5446 291.003 81.9784 294.004 78.9029L294.054 78.9506C295.796 79.3819 297.581 79.72 299.34 79.4165C301.404 79.0611 303.424 77.5677 303.687 75.4979C304.451 76.2304 305.529 76.6553 306.608 76.5491C307.687 76.4429 308.733 75.7254 309.037 74.6894C309.311 73.7704 308.996 72.8515 308.509 71.991C310.651 71.5727 312.812 71.3213 314.972 71.577C318.225 71.965 321.515 73.7466 322.77 76.7636C324.064 79.8869 322.946 83.4176 321.959 86.6492C319.393 95.0436 317.781 103.663 316.622 112.366C312.277 108.969 307.932 105.569 303.587 102.172Z" fill="#203F85"/>
<path d="M315.187 144.913C311.945 143.396 308.963 141.337 306.027 139.258C306.556 134.752 307.826 130.32 309.987 126.33C312.362 121.934 316.15 117.914 320.456 115.367C321.039 115.822 321.624 116.28 322.205 116.735C322.859 117.246 323.516 117.762 324.17 118.274L324.216 118.3C328.787 109.923 333.398 101.491 338.223 92.7437C337.016 89.8047 335.89 86.4842 337.068 83.5365C337.584 82.2448 338.501 81.1697 339.569 80.2919C340.106 79.8498 340.459 79.5442 341.12 79.2949C341.674 79.0869 342.224 78.8593 342.766 78.6144C342.983 78.5168 343.199 78.415 343.414 78.3087C343.988 78.0292 344.603 77.7192 345.232 77.8384C346.082 78.001 346.611 78.946 346.539 79.8043C346.465 80.6647 345.93 81.4168 345.306 82.015C345.078 82.2339 344.838 82.4355 344.588 82.6262C344.758 82.7368 344.949 82.817 345.147 82.8538C345.004 83.1009 344.884 83.361 344.795 83.6319C344.516 84.4794 344.562 85.4677 345.084 86.1938C345.586 86.8874 346.58 87.2428 347.359 86.9004C347.252 87.1193 347.163 87.3447 347.093 87.5788C346.828 88.4891 346.92 89.5403 347.502 90.2924C348.039 90.9838 349.033 91.3349 349.844 91.0423C349.879 90.9838 349.912 90.9252 349.949 90.8689C351.08 89.1003 352.756 87.6871 354.694 86.8722C355.138 86.6858 355.605 86.5254 356.088 86.5297C356.19 86.5297 356.288 86.5406 356.384 86.5601C357.29 86.7486 357.771 87.7717 357.786 88.6668C357.799 89.3409 357.599 89.9998 357.373 90.637C356.377 93.4416 354.798 96.3308 352.789 98.5415C351.582 99.868 350.919 101.379 350.569 103.139C350.277 104.61 349.979 106.082 349.668 107.547C349.055 110.447 348.396 113.336 347.648 116.204C345.941 122.758 343.758 129.219 340.646 135.253C338.432 139.545 335.535 143.804 331.158 145.869C327.445 147.618 323.105 147.542 319.127 146.409C318.553 146.246 317.99 146.062 317.436 145.858C316.67 145.572 315.922 145.256 315.187 144.913Z" fill="#FFC3A8"/>
<path d="M320.456 115.365C319.177 114.366 317.901 113.364 316.622 112.365C317.779 103.663 319.393 95.0433 321.959 86.6489C322.946 83.4173 324.064 79.8844 322.77 76.7633C321.517 73.7463 318.225 71.9647 314.972 71.5767C312.814 71.321 310.651 71.5724 308.509 71.9907C308.256 71.542 307.961 71.1107 307.674 70.7032C307.589 70.584 307.504 70.4627 307.423 70.3348C307.748 70.0444 308.054 69.7322 308.337 69.405C309.329 68.2606 310.09 66.9558 310.705 65.5708L310.812 65.6163C313.734 65.2782 316.664 65.1872 319.543 65.7225C324.294 66.6068 328.959 69.5784 330.46 74.1559C331.967 78.7638 330.035 83.699 328.448 88.2809C325.282 97.4144 323.396 107.14 322.205 116.733C321.624 116.277 321.039 115.82 320.456 115.365Z" fill="#2E5BBF"/>
<path d="M279.658 99.8205C277.844 100.778 275.817 101.335 273.764 101.401C270.354 101.507 266.927 100.252 264.374 98.002C254.042 105.536 246.986 117.394 245.339 129.863C244.435 134.757 243.584 139.66 242.782 144.571C242.678 145.21 242.573 145.85 242.471 146.491C241.871 150.232 241.299 153.975 240.762 157.727C240.514 159.45 240.27 161.173 240.038 162.896C239.64 165.799 239.261 168.703 238.902 171.607C238.644 173.681 238.396 175.753 238.159 177.83H287.743C289.761 161.889 291.779 145.945 293.797 130.004C287.826 121.948 282.126 111.531 279.658 99.8205Z" fill="#FFFBFF"/>
<path d="M302.537 140.127C299.797 137.425 296.763 134.002 293.797 130.001C291.779 145.943 289.761 161.886 287.743 177.827H299.636C300.545 165.523 301.639 152.384 302.537 140.127Z" fill="#FFE8E8"/>
<path d="M315.833 31.6986C315.831 31.6726 315.831 31.6466 315.828 31.6206C315.457 25.8271 312.475 19.8451 307.471 17.1618C307.898 18.1198 308.143 18.9629 308.306 19.5568C309.494 23.8331 310.127 28.1983 310.392 32.6089C310.69 37.5745 310.525 42.5964 310.159 47.6096L310.203 47.6117C311.02 48.392 311.605 49.298 312.025 50.2061C314.163 44.2154 316.222 38.0275 315.833 31.6986Z" fill="#002169"/>
<path d="M300.608 14.2856C300.367 12.9613 299.943 11.6956 299.371 10.5035C299.293 10.3409 299.197 10.1719 299.088 9.99415C296.228 5.45126 282.193 -3.92496 258.202 1.80134C255.21 2.51442 252.066 3.46374 248.764 4.68616C246.657 5.46643 244.456 5.9671 242.219 6.19251C237.978 6.62166 233.72 6.98578 229.851 8.7002C225.67 10.5533 222.175 14.019 220.568 18.2888C218.959 22.5608 219.344 27.5913 221.831 31.4212C224.626 35.7256 229.728 38.0404 234.912 38.3135C235.627 38.3525 236.343 38.3504 237.056 38.3092C237.737 38.2702 238.413 38.1986 239.081 38.0881C243.926 37.2883 248.336 34.9063 252.198 31.8243C252.816 32.5634 253.523 33.2309 254.299 33.7923C257.578 36.1765 261.817 36.9415 265.87 36.74C271.666 36.4495 277.333 34.2323 281.839 30.5954C281.726 33.7099 282.258 36.8245 283.644 39.6075C284.364 41.0488 285.325 42.3687 286.469 43.5045C287.038 44.0702 287.656 44.5925 288.313 45.0585C289.191 45.6827 289.907 46.1855 290.2 47.2562C290.531 48.4505 290.927 49.6144 291.459 50.7349C291.999 51.8685 292.645 52.95 293.39 53.9557L293.564 54.0056C294.062 52.2976 294.806 50.6808 295.889 49.2698C297.888 46.6711 300.858 44.7746 304.029 45.2341C303.964 40.2403 303.622 35.251 303.07 30.2811C302.472 24.9189 301.628 19.5806 300.608 14.2856Z" fill="#002169"/>
<path d="M342.266 68.1393L340.596 66.5463L339.21 67.1683L339.371 69.5243C340.346 69.1667 341.298 68.7397 342.211 68.2477L342.296 68.2043L342.266 68.1393Z" fill="#FD7D42"/>
<path d="M339.071 65.0917L339.21 67.1616V67.166L340.596 66.5461L339.071 65.0917Z" fill="#002169"/>
<path d="M124.946 124.587V124.535C124.718 124.535 124.488 124.537 124.259 124.537C120.704 124.55 117.148 124.566 113.593 124.576C110.998 124.585 108.406 124.596 105.814 124.607V124.717L103.559 131.644H122.546C123.346 129.293 124.146 126.939 124.946 124.587Z" fill="#FE9126"/>
<path d="M103.559 131.644L98.9724 145.737C101.328 145.737 103.687 145.739 106.053 145.75C109.926 145.765 113.812 145.795 117.716 145.841C119.325 141.11 120.934 136.376 122.546 131.644H103.559Z" fill="#FFD24C"/>
<path d="M118.088 163.321C117.679 166.084 117.268 168.843 116.857 171.607H226.724L225.337 162.931L118.088 163.321Z" fill="#21428A"/>
<path d="M229.725 157.751L228.927 157.753L176.96 157.857L140.971 157.931L131.801 157.948L105.933 158L79.5767 158.052L53.8093 158.104L34.9572 158.141L15.0179 158.182V163.681L23.736 163.651L30.1317 163.629L111.692 163.345L118.088 163.321L229.725 162.931V157.751Z" fill="#2E5BBF"/>
<path d="M306.978 17.5127C307.237 17.647 307.526 17.7966 307.802 17.7077C308.276 17.5582 308.289 16.8971 308.172 16.416C307.265 12.727 303.99 9.73383 300.223 9.1508C299.714 9.07277 299.06 9.11179 298.866 9.58645C298.666 10.0784 299.134 10.5574 299.46 10.9779C300.064 11.7582 300.256 12.7704 300.43 13.7414C300.549 14.4133 300.521 15.7636 300.889 16.3249C301.245 16.8733 301.946 16.5222 302.652 16.5092C304.146 16.4831 305.649 16.8256 306.978 17.5127Z" fill="#00BFFB"/>
<path d="M241.345 83.953C242.11 85.2512 243.345 86.2677 244.768 86.7706C245.298 86.9591 245.879 87.0784 246.422 86.9266C246.964 86.7749 247.445 86.2916 247.431 85.7302C247.421 85.2361 247.049 84.8199 246.631 84.5555C246.214 84.2911 245.735 84.1307 245.318 83.8641C244.289 83.2074 243.574 81.6967 242.271 81.4929C240.777 81.2567 240.814 83.0535 241.345 83.953Z" fill="#2E5BBF"/>
<path d="M107.301 32.0758V32.1213H107.886C107.686 32.1213 107.49 32.1061 107.301 32.0758Z" fill="#7964FF"/>
<path d="M107.886 25.5499C106.388 25.5499 105.161 26.7723 105.161 28.2657C105.161 29.0113 105.468 29.6897 105.962 30.1838C106.455 30.6759 107.138 30.9815 107.886 30.9815H114.906C116.404 30.9815 117.631 29.759 117.631 28.2657C117.631 27.5201 117.324 26.8417 116.831 26.3475C116.337 25.8555 115.656 25.5499 114.906 25.5499H107.886Z" fill="white"/>
<path d="M104.018 24.4109C101.884 24.4109 100.147 26.1405 100.147 28.2689C100.147 30.393 101.882 32.1248 104.018 32.1248H107.299V32.0792C105.442 31.7996 104.018 30.1979 104.018 28.2689C104.018 26.1427 105.751 24.4109 107.886 24.4109H104.018Z" fill="#2E5BBF"/>
<path d="M117.629 28.2655C117.629 27.5199 117.322 26.8415 116.828 26.3473C116.335 25.8553 115.654 25.5497 114.904 25.5497H107.884C106.386 25.5497 105.159 26.7721 105.159 28.2655C105.159 29.011 105.466 29.6894 105.96 30.1836C106.453 30.6756 107.136 30.9812 107.884 30.9812H114.904C116.402 30.9834 117.629 29.7588 117.629 28.2655ZM109.53 32.1213H107.886C107.686 32.1213 107.491 32.1061 107.301 32.0758C105.444 31.7962 104.02 30.1945 104.02 28.2655C104.02 26.1392 105.753 24.4075 107.888 24.4075H111.04H114.908C117.042 24.4075 118.779 26.1371 118.779 28.2655C118.779 30.3895 117.044 32.1213 114.908 32.1213H111.877H109.53Z" fill="#00BFFB"/>
<path d="M107.301 32.1213V33.0837C108.606 33.0837 109.915 33.0837 111.22 33.0837C111.437 33.0837 111.657 33.0837 111.875 33.0837V32.1213H109.532H107.888H107.301Z" fill="#2E5BBF"/>
<path d="M114.001 28.2632C114.001 28.6794 114.341 29.0175 114.758 29.0175C115.176 29.0175 115.515 28.6794 115.515 28.2632C115.515 27.8471 115.176 27.509 114.758 27.509C114.341 27.509 114.001 27.8471 114.001 28.2632Z" fill="#2E5BBF"/>
<path d="M110.918 29.5423C111.627 28.7067 111.522 27.4567 110.683 26.7505C109.845 26.0442 108.591 26.1492 107.882 26.9848C107.173 27.8205 107.279 29.0704 108.117 29.7767C108.956 30.4829 110.21 30.378 110.918 29.5423Z" fill="#00BFFB"/>
<path d="M108.643 28.2632C108.643 28.6771 108.98 29.0131 109.396 29.0131C109.811 29.0131 110.148 28.6771 110.148 28.2632C110.148 27.8492 109.811 27.5132 109.396 27.5132C108.98 27.5132 108.643 27.8492 108.643 28.2632Z" fill="#2E5BBF"/>
<path d="M278.583 44.7422C278.379 44.7422 278.172 44.6728 278.003 44.5341C276.715 43.4721 274.717 42.2431 272.52 42.4122C272.009 42.4512 271.579 42.0741 271.54 41.5734C271.5 41.0727 271.877 40.6349 272.381 40.5959C275.191 40.3813 277.622 41.8552 279.168 43.1318C279.558 43.4526 279.612 44.0269 279.29 44.4127C279.107 44.6295 278.846 44.7422 278.583 44.7422Z" fill="#002169"/>
<path d="M247.925 45.6002C247.708 45.6002 247.488 45.5222 247.312 45.364C246.938 45.0259 246.91 44.4515 247.247 44.0787C248.688 42.49 250.746 41.4691 252.885 41.2784C253.383 41.2307 253.831 41.6035 253.877 42.1042C253.923 42.6049 253.551 43.047 253.049 43.0925C251.359 43.2442 249.739 44.0483 248.601 45.3011C248.423 45.4983 248.175 45.6002 247.925 45.6002Z" fill="#002169"/>
<path d="M259.04 66.0046C258.959 66.0046 258.877 65.983 258.8 65.9374C257.992 65.4433 256.837 64.6522 256.128 63.4731C255.393 62.2507 255.301 60.8202 255.893 59.7365C256.367 58.8673 257.3 58.202 258.453 57.9094C259.412 57.6666 260.368 57.6818 261.434 57.7273C261.686 57.7381 261.882 57.9505 261.871 58.1998C261.86 58.4512 261.654 58.6441 261.395 58.6354C260.403 58.5943 259.516 58.5791 258.677 58.7915C257.77 59.0212 257.046 59.5241 256.693 60.1721C256.263 60.9611 256.347 62.0729 256.911 63.0049C257.515 64.0106 258.55 64.7172 259.277 65.1615C259.492 65.2937 259.559 65.5733 259.427 65.7879C259.344 65.9266 259.194 66.0046 259.04 66.0046Z" fill="#FF8570"/>
<path d="M343.679 91.3826C343.627 91.3826 343.575 91.3739 343.523 91.3544C343.286 91.2677 343.164 91.0054 343.251 90.7714C343.805 89.2629 343.742 87.5203 343.077 85.9901C342.916 85.6173 342.718 85.2618 342.494 84.9345C342.448 84.8673 342.403 84.8088 342.364 84.7546C342.205 84.5444 342.027 84.3082 342.09 83.9917C342.148 83.6883 342.407 83.4997 342.625 83.3697C343.481 82.856 344.306 82.3402 344.991 81.6856C345.663 81.0397 346.032 80.3938 346.084 79.7653C346.137 79.1584 345.765 78.402 345.147 78.2849C344.68 78.1982 344.153 78.454 343.644 78.7032L343.614 78.7184C343.388 78.8289 343.114 78.7358 343.003 78.5103C342.892 78.2849 342.986 78.0118 343.212 77.9013L343.242 77.8861C343.855 77.587 344.551 77.2467 345.317 77.392C346.463 77.6087 347.078 78.8333 346.993 79.8433C346.922 80.6994 346.458 81.5404 345.621 82.3423C344.869 83.0641 343.997 83.6081 343.094 84.1499C343.083 84.1564 343.073 84.1629 343.064 84.1694C343.075 84.1846 343.086 84.1976 343.094 84.2106C343.142 84.2735 343.194 84.345 343.249 84.423C343.507 84.798 343.731 85.2055 343.916 85.6324C344.673 87.375 344.743 89.3626 344.11 91.0878C344.04 91.2677 343.866 91.3826 343.679 91.3826Z" fill="#FF8570"/>
<path d="M346.719 87.4792C345.967 87.4792 345.184 87.1064 344.714 86.4562C344.142 85.6629 344.01 84.5532 344.362 83.4869C344.623 82.6936 345.125 81.935 345.939 81.1005C347.352 79.6462 349.111 78.5192 351.025 77.8364C351.612 77.6262 352.126 77.5178 352.6 77.5005C352.861 77.4897 353.063 77.6869 353.072 77.9383C353.08 78.1897 352.882 78.4 352.632 78.4086C352.26 78.4216 351.823 78.517 351.334 78.6926C349.551 79.3276 347.913 80.381 346.595 81.7334C345.882 82.466 345.449 83.1141 345.232 83.7708C344.975 84.5511 345.062 85.3768 345.458 85.9252C345.873 86.4996 346.691 86.7401 347.246 86.4497C347.47 86.3327 347.746 86.4172 347.863 86.6404C347.981 86.8637 347.896 87.1389 347.672 87.256C347.378 87.4077 347.052 87.4792 346.719 87.4792Z" fill="#FF8570"/>
<path d="M351.11 93.9772C350.273 93.9772 349.444 93.6413 349.125 92.8762C348.857 92.2411 349.003 91.502 349.566 90.6199C350.743 88.7776 352.502 87.2973 354.518 86.4476C354.961 86.2612 355.494 86.0705 356.075 86.0705C356.079 86.0705 356.086 86.0705 356.09 86.0705C356.342 86.0727 356.544 86.2764 356.544 86.5278C356.542 86.7792 356.344 86.983 356.086 86.9808C356.083 86.9808 356.079 86.9808 356.075 86.9808C355.657 86.9808 355.233 87.1347 354.872 87.2864C353.024 88.0645 351.412 89.4213 350.336 91.1097C349.944 91.7231 349.823 92.1869 349.966 92.5272C350.181 93.0431 350.982 93.1601 351.623 93.0084C353.163 92.6464 354.394 91.3373 355.381 90.2861C355.553 90.1019 355.842 90.0932 356.027 90.2644C356.212 90.4357 356.22 90.7239 356.049 90.9082C354.977 92.0482 353.641 93.47 351.834 93.8927C351.602 93.949 351.356 93.9772 351.11 93.9772Z" fill="#FF8570"/>
<path d="M84.7871 97.72C83.9216 96.3285 82.445 95.2947 80.838 94.9522L80.9815 94.2847C82.7669 94.6661 84.4066 95.8149 85.3678 97.3602L84.7871 97.72Z" fill="#0057C2"/>
<path d="M86.4834 102.646L85.3872 110.04L86.0649 110.139L87.1611 102.746L86.4834 102.646Z" fill="#0057C2"/>
<path d="M113.009 98.7838L112.333 98.8937L114.132 109.889L114.808 109.779L113.009 98.7838Z" fill="#0057C2"/>
<path d="M135.017 82.418C134.945 82.418 134.871 82.4007 134.802 82.3638C134.58 82.2446 134.495 81.9694 134.615 81.7483C135.252 80.5627 135.339 79.1084 134.85 77.8556C134.767 77.6475 134.85 77.4091 135.045 77.2964C136.161 76.6462 137.094 75.6839 137.742 74.5113C137.957 74.1212 137.951 73.9413 137.907 73.8589C137.809 73.6747 137.375 73.6877 136.994 73.7961C136.529 73.9304 136.065 74.1082 135.622 74.3227C135.396 74.4333 135.122 74.3379 135.011 74.1125C134.9 73.8871 134.995 73.614 135.222 73.5035C135.713 73.2651 136.224 73.0678 136.742 72.9204C137.668 72.6538 138.407 72.8467 138.716 73.4319C139.04 74.0475 138.666 74.7259 138.542 74.9491C137.877 76.152 136.942 77.1599 135.828 77.8838C136.268 79.2948 136.124 80.8726 135.422 82.1774C135.339 82.3313 135.18 82.418 135.017 82.418Z" fill="#FF8570"/>
<path d="M105.035 72.281C103.576 72.281 102.071 71.3772 101.241 69.9489C100.495 68.6658 100.229 67.0359 100.458 65.1047L100.471 65.0007L100.54 64.9205C101.654 63.6374 103.185 62.8398 104.85 62.6729C106.451 62.5125 108.123 62.9482 109.441 63.8693L109.596 63.9777L109.587 64.1641C109.574 64.4719 109.565 64.784 109.556 65.1004C109.526 66.3467 109.493 67.6363 109.089 68.876C108.5 70.6793 107.116 71.9993 105.559 72.2399C105.385 72.268 105.211 72.281 105.035 72.281ZM101.125 65.289C100.938 67.0229 101.175 68.4751 101.832 69.6043C102.624 70.9654 104.113 71.7739 105.453 71.5636C106.755 71.3621 107.925 70.2242 108.434 68.6636C108.808 67.5171 108.839 66.2795 108.867 65.0831C108.874 64.8273 108.88 64.5737 108.889 64.3245C107.73 63.568 106.292 63.2148 104.914 63.3535C103.459 63.4987 102.117 64.1858 101.125 65.289Z" fill="#002169"/>
<path d="M93.8881 72.3854C93.7119 72.3854 93.5379 72.3724 93.3661 72.3464C91.8113 72.1058 90.426 70.7859 89.8367 68.9826C89.4322 67.7428 89.3996 66.4532 89.3692 65.207C89.3605 64.8905 89.3539 64.5784 89.3387 64.2706L89.33 64.0843L89.4844 63.9759C90.8022 63.0547 92.4745 62.6191 94.0751 62.7795C95.7409 62.9464 97.2718 63.744 98.3852 65.0271L98.4548 65.1073L98.4679 65.2113C98.694 67.1425 98.4309 68.7724 97.685 70.0555C96.8521 71.4816 95.3473 72.3854 93.8881 72.3854ZM90.0302 64.431C90.0389 64.6803 90.0455 64.9339 90.052 65.1896C90.0824 66.3882 90.1129 67.6258 90.4847 68.7702C90.9936 70.3307 92.1636 71.4686 93.4662 71.6702C94.8058 71.8783 96.2954 71.072 97.087 69.7108C97.7437 68.5816 97.9829 67.1295 97.7937 65.3955C96.8021 64.2923 95.4603 63.6053 94.0011 63.46C92.6289 63.3213 91.1915 63.6746 90.0302 64.431Z" fill="#002169"/>
<path d="M98.2156 65.6142L97.8764 65.0203C98.8071 64.4915 99.9923 64.4373 100.969 64.8816L100.684 65.5037C99.9053 65.1482 98.9594 65.1916 98.2156 65.6142Z" fill="#002169"/>
<path d="M349.238 91.5949C348.459 91.5949 347.654 91.2242 347.143 90.5653C346.508 89.7461 346.328 88.58 346.656 87.4486C346.911 86.5795 347.441 85.7385 348.283 84.8802C349.359 83.7792 350.684 82.8927 352.113 82.3162C352.811 82.0344 353.852 81.7007 354.848 82.0561C355.085 82.1406 355.209 82.4007 355.124 82.637C355.04 82.8732 354.779 82.9968 354.542 82.9122C354.007 82.7215 353.343 82.7995 352.456 83.1572C351.143 83.6882 349.927 84.5031 348.938 85.5131C348.205 86.263 347.744 86.9783 347.535 87.7C347.289 88.541 347.415 89.4253 347.865 90.0061C348.342 90.6195 349.225 90.8601 349.838 90.5437C350.062 90.4288 350.338 90.5155 350.453 90.7387C350.569 90.962 350.482 91.2372 350.258 91.3521C349.944 91.5168 349.594 91.5949 349.238 91.5949Z" fill="#FF8570"/>
<path d="M177.4 150.549L176.487 150.555L176.537 157.829L177.45 157.823L177.4 150.549Z" fill="#9E9E9E"/>
<path d="M172.693 140.396C172.691 140.396 172.689 140.396 172.689 140.396C172.436 140.394 172.234 140.188 172.236 139.937C172.241 139.518 172.336 139.087 172.515 138.69C172.88 137.867 173.537 137.24 174 136.839C176.268 134.876 179.289 133.801 182.294 133.896C182.546 133.905 182.744 134.115 182.736 134.364C182.727 134.616 182.52 134.811 182.266 134.804C179.491 134.72 176.697 135.71 174.6 137.524C173.961 138.077 173.576 138.552 173.35 139.059C173.221 139.345 173.154 139.653 173.15 139.948C173.145 140.197 172.943 140.396 172.693 140.396Z" fill="#FF8570"/>
<path d="M138.055 58.6114C137.888 58.6114 137.729 58.5182 137.649 58.3643L134.956 53.1495C134.841 52.9263 134.928 52.651 135.154 52.5362C135.378 52.4213 135.654 52.5102 135.77 52.7334L137.727 56.522L138.22 50.2105C138.238 49.9765 138.434 49.7944 138.668 49.7901L151.542 49.595C151.79 49.5928 152.001 49.7922 152.006 50.0436C152.01 50.2951 151.808 50.501 151.555 50.5053L139.099 50.6939L138.512 58.1909C138.497 58.3947 138.347 58.5616 138.147 58.6027C138.116 58.6092 138.086 58.6114 138.055 58.6114Z" fill="#99E7FF"/>
<path d="M143.825 57.8551C143.701 57.8551 143.577 57.8052 143.485 57.7055C142.311 56.4138 141.291 54.9854 140.454 53.4552C140.332 53.2342 140.415 52.9589 140.636 52.8375C140.858 52.7183 141.134 52.7985 141.256 53.0196C142.059 54.4869 143.037 55.8567 144.164 57.0943C144.333 57.2807 144.318 57.569 144.133 57.7381C144.044 57.8161 143.935 57.8551 143.825 57.8551Z" fill="#99E7FF"/>
<path d="M140.854 58.6503C140.765 58.6503 140.673 58.6243 140.595 58.5701C140.389 58.4271 140.334 58.1431 140.478 57.9372C140.958 57.2415 141.513 56.2943 142.046 55.3797C142.589 54.4499 143.15 53.4876 143.653 52.7636C143.796 52.5577 144.079 52.5035 144.288 52.6466C144.494 52.7896 144.549 53.0736 144.405 53.2795C143.925 53.9752 143.37 54.9224 142.837 55.837C142.294 56.7668 141.733 57.7292 141.23 58.4531C141.143 58.581 141 58.6503 140.854 58.6503Z" fill="#99E7FF"/>
<path d="M148.217 55.5249C148.213 55.5249 148.209 55.5249 148.204 55.5249L145.54 55.449C145.288 55.4425 145.09 55.2323 145.097 54.9809C145.103 54.7294 145.314 54.5365 145.566 54.5387L148.23 54.6146C148.483 54.6211 148.681 54.8313 148.674 55.0827C148.665 55.3298 148.463 55.5249 148.217 55.5249Z" fill="#99E7FF"/>
<path d="M151.771 57.9353C150.727 57.9353 149.677 57.3891 149.157 56.4722C148.437 55.2021 148.85 53.4379 150.061 52.6186C151.271 51.7993 153.069 52.0659 153.989 53.2016C154.341 53.6373 154.535 54.1466 154.533 54.6386C154.53 55.2368 154.217 55.8047 153.739 56.0843C153.343 56.3162 152.865 56.3357 152.471 56.1688C152.351 56.2707 152.206 56.3509 152.04 56.4007C151.638 56.5221 151.203 56.4376 150.907 56.1818C150.659 55.9651 150.509 55.653 150.485 55.3018C150.462 54.9204 150.588 54.5454 150.831 54.2702C151.244 53.8063 151.958 53.6243 152.608 53.8193C152.849 53.8909 152.986 54.1444 152.915 54.3872C152.843 54.6278 152.586 54.7643 152.345 54.6928C152.034 54.5996 151.695 54.6755 151.516 54.8749C151.434 54.9659 151.39 55.1089 151.399 55.2455C151.403 55.3083 151.423 55.4232 151.508 55.4991C151.566 55.5489 151.677 55.5641 151.777 55.5338C151.836 55.5164 151.903 55.4796 151.916 55.4254C151.962 55.2628 152.09 55.1393 152.256 55.1024C152.419 55.0656 152.591 55.122 152.701 55.2477C152.823 55.3864 153.091 55.4146 153.276 55.3062C153.48 55.187 153.617 54.9182 153.619 54.6408C153.621 54.359 153.5 54.0534 153.278 53.7803C152.656 53.0131 151.392 52.8267 150.575 53.3794C149.757 53.9342 149.466 55.1718 149.953 56.0301C150.44 56.8884 151.655 57.2807 152.554 56.8667C152.782 56.7605 153.054 56.8602 153.16 57.09C153.267 57.3175 153.167 57.5885 152.936 57.6947C152.567 57.8572 152.169 57.9353 151.771 57.9353Z" fill="#99E7FF"/>
<path d="M158.645 66.4962H150.555C150.303 66.4962 150.098 66.2925 150.098 66.0411C150.098 65.7897 150.303 65.5859 150.555 65.5859H158.645C158.897 65.5859 159.101 65.7897 159.101 66.0411C159.101 66.2925 158.897 66.4962 158.645 66.4962Z" fill="#99E7FF"/>
<path d="M152.984 63.1217C152.819 63.1217 152.667 63.0328 152.586 62.8897C152.506 62.7445 152.508 62.5668 152.597 62.4259L154.359 59.5996C154.491 59.385 154.774 59.32 154.987 59.4522C155.202 59.5844 155.268 59.8662 155.135 60.0786L153.811 62.2048L155.985 62.1875C155.987 62.1875 155.987 62.1875 155.99 62.1875C156.24 62.1875 156.444 62.3891 156.446 62.6383C156.448 62.8897 156.246 63.0956 155.994 63.0978L152.991 63.1217C152.986 63.1217 152.984 63.1217 152.984 63.1217Z" fill="#99E7FF"/>
<path d="M156.227 64.4505C155.974 64.4505 155.77 64.2468 155.77 63.9954V61.3489C155.77 61.0975 155.974 60.8938 156.227 60.8938C156.479 60.8938 156.683 61.0975 156.683 61.3489V63.9954C156.683 64.2468 156.479 64.4505 156.227 64.4505Z" fill="#99E7FF"/>
<path d="M154.783 72.6995C154.726 72.6995 154.672 72.6995 154.62 72.6995C153.574 72.6909 152.934 72.3722 152.721 71.7502C152.638 71.5118 152.767 71.2539 153.006 71.1715C153.245 71.0891 153.504 71.217 153.587 71.4554C153.684 71.7415 154.282 71.787 154.628 71.7892C155.024 71.7935 155.433 71.7957 155.753 71.6418C155.974 71.5356 156.177 71.2842 156.127 71.0805C156.092 70.9352 155.924 70.7965 155.713 70.738C155.452 70.6643 155.139 70.686 154.835 70.7077C154.613 70.7228 154.415 70.582 154.361 70.3696C154.304 70.1571 154.409 69.9361 154.606 69.8429C154.954 69.6781 155.315 69.5091 155.535 69.2447C155.709 69.0366 155.763 68.7418 155.657 68.5858C155.561 68.4471 155.318 68.3799 155.078 68.4232C154.78 68.4774 154.483 68.6638 154.195 68.8437C153.982 68.9781 153.7 68.913 153.565 68.7006C153.43 68.4882 153.495 68.2065 153.708 68.0721C154.052 67.8554 154.441 67.6126 154.913 67.5259C155.518 67.4154 156.105 67.6299 156.407 68.0678C156.753 68.5684 156.683 69.2923 156.235 69.8255C156.207 69.8602 156.179 69.8927 156.148 69.9231C156.588 70.103 156.912 70.4497 157.014 70.8616C157.186 71.5573 156.707 72.1923 156.148 72.4611C155.694 72.6778 155.202 72.6995 154.783 72.6995Z" fill="#99E7FF"/>
<path d="M133.854 66.182C133.806 66.182 133.758 66.1755 133.71 66.1582C132.162 65.6467 130.766 64.7385 129.67 63.5356C129.5 63.3492 129.515 63.061 129.7 62.8919C129.887 62.7229 130.176 62.738 130.346 62.9222C131.336 64.0103 132.599 64.8296 133.997 65.2912C134.237 65.3692 134.367 65.6272 134.287 65.8656C134.224 66.0628 134.045 66.182 133.854 66.182Z" fill="#99E7FF"/>
<path d="M129.985 67.4178C129.896 67.4178 129.807 67.3918 129.729 67.3397C129.52 67.1989 129.465 66.9149 129.607 66.7069L132.449 62.5303C132.59 62.3222 132.875 62.268 133.084 62.4089C133.293 62.5498 133.347 62.8337 133.206 63.0418L130.364 67.2184C130.277 67.3484 130.131 67.4178 129.985 67.4178Z" fill="#99E7FF"/>
</svg>
